<?xml version="1.0" encoding="utf-8" standalone="no"?>
<!DOCTYPE svg PUBLIC "-//W3C//DTD SVG 1.1//EN"
  "http://www.w3.org/Graphics/SVG/1.1/DTD/svg11.dtd">
<!-- Created with matplotlib (https://matplotlib.org/) -->
<svg height="345.6pt" version="1.1" viewBox="0 0 460.8 345.6" width="460.8pt" xmlns="http://www.w3.org/2000/svg" xmlns:xlink="http://www.w3.org/1999/xlink">
 <metadata>
  <rdf:RDF xmlns:cc="http://creativecommons.org/ns#" xmlns:dc="http://purl.org/dc/elements/1.1/" xmlns:rdf="http://www.w3.org/1999/02/22-rdf-syntax-ns#">
   <cc:Work>
    <dc:type rdf:resource="http://purl.org/dc/dcmitype/StillImage"/>
    <dc:date>2022-01-10T05:47:44.565428</dc:date>
    <dc:format>image/svg+xml</dc:format>
    <dc:creator>
     <cc:Agent>
      <dc:title>Matplotlib v3.3.4, https://matplotlib.org/</dc:title>
     </cc:Agent>
    </dc:creator>
   </cc:Work>
  </rdf:RDF>
 </metadata>
 <defs>
  <style type="text/css">*{stroke-linecap:butt;stroke-linejoin:round;}</style>
 </defs>
 <g id="figure_1">
  <g id="patch_1">
   <path d="M 0 345.6 
L 460.8 345.6 
L 460.8 0 
L 0 0 
z
" style="fill:#ffffff;"/>
  </g>
  <g id="axes_1">
   <g id="patch_2">
    <path d="M 57.6 307.584 
L 414.72 307.584 
L 414.72 41.472 
L 57.6 41.472 
z
" style="fill:#ffffff;"/>
   </g>
   <g id="matplotlib.axis_1">
    <g id="xtick_1">
     <g id="line2d_1">
      <defs>
       <path d="M 0 0 
L 0 3.5 
" id="m4740957611" style="stroke:#000000;stroke-width:0.8;"/>
      </defs>
      <g>
       <use style="stroke:#000000;stroke-width:0.8;" x="73.832727" xlink:href="#m4740957611" y="307.584"/>
      </g>
     </g>
     <g id="text_1">
      <!-- 0 -->
      <g transform="translate(70.651477 322.182437)scale(0.1 -0.1)">
       <defs>
        <path d="M 31.78125 66.40625 
Q 24.171875 66.40625 20.328125 58.90625 
Q 16.5 51.421875 16.5 36.375 
Q 16.5 21.390625 20.328125 13.890625 
Q 24.171875 6.390625 31.78125 6.390625 
Q 39.453125 6.390625 43.28125 13.890625 
Q 47.125 21.390625 47.125 36.375 
Q 47.125 51.421875 43.28125 58.90625 
Q 39.453125 66.40625 31.78125 66.40625 
z
M 31.78125 74.21875 
Q 44.046875 74.21875 50.515625 64.515625 
Q 56.984375 54.828125 56.984375 36.375 
Q 56.984375 17.96875 50.515625 8.265625 
Q 44.046875 -1.421875 31.78125 -1.421875 
Q 19.53125 -1.421875 13.0625 8.265625 
Q 6.59375 17.96875 6.59375 36.375 
Q 6.59375 54.828125 13.0625 64.515625 
Q 19.53125 74.21875 31.78125 74.21875 
z
" id="DejaVuSans-48"/>
       </defs>
       <use xlink:href="#DejaVuSans-48"/>
      </g>
     </g>
    </g>
    <g id="xtick_2">
     <g id="line2d_2">
      <g>
       <use style="stroke:#000000;stroke-width:0.8;" x="114.618474" xlink:href="#m4740957611" y="307.584"/>
      </g>
     </g>
     <g id="text_2">
      <!-- 25 -->
      <g transform="translate(108.255974 322.182437)scale(0.1 -0.1)">
       <defs>
        <path d="M 19.1875 8.296875 
L 53.609375 8.296875 
L 53.609375 0 
L 7.328125 0 
L 7.328125 8.296875 
Q 12.9375 14.109375 22.625 23.890625 
Q 32.328125 33.6875 34.8125 36.53125 
Q 39.546875 41.84375 41.421875 45.53125 
Q 43.3125 49.21875 43.3125 52.78125 
Q 43.3125 58.59375 39.234375 62.25 
Q 35.15625 65.921875 28.609375 65.921875 
Q 23.96875 65.921875 18.8125 64.3125 
Q 13.671875 62.703125 7.8125 59.421875 
L 7.8125 69.390625 
Q 13.765625 71.78125 18.9375 73 
Q 24.125 74.21875 28.421875 74.21875 
Q 39.75 74.21875 46.484375 68.546875 
Q 53.21875 62.890625 53.21875 53.421875 
Q 53.21875 48.921875 51.53125 44.890625 
Q 49.859375 40.875 45.40625 35.40625 
Q 44.1875 33.984375 37.640625 27.21875 
Q 31.109375 20.453125 19.1875 8.296875 
z
" id="DejaVuSans-50"/>
        <path d="M 10.796875 72.90625 
L 49.515625 72.90625 
L 49.515625 64.59375 
L 19.828125 64.59375 
L 19.828125 46.734375 
Q 21.96875 47.46875 24.109375 47.828125 
Q 26.265625 48.1875 28.421875 48.1875 
Q 40.625 48.1875 47.75 41.5 
Q 54.890625 34.8125 54.890625 23.390625 
Q 54.890625 11.625 47.5625 5.09375 
Q 40.234375 -1.421875 26.90625 -1.421875 
Q 22.3125 -1.421875 17.546875 -0.640625 
Q 12.796875 0.140625 7.71875 1.703125 
L 7.71875 11.625 
Q 12.109375 9.234375 16.796875 8.0625 
Q 21.484375 6.890625 26.703125 6.890625 
Q 35.15625 6.890625 40.078125 11.328125 
Q 45.015625 15.765625 45.015625 23.390625 
Q 45.015625 31 40.078125 35.4375 
Q 35.15625 39.890625 26.703125 39.890625 
Q 22.75 39.890625 18.8125 39.015625 
Q 14.890625 38.140625 10.796875 36.28125 
z
" id="DejaVuSans-53"/>
       </defs>
       <use xlink:href="#DejaVuSans-50"/>
       <use x="63.623047" xlink:href="#DejaVuSans-53"/>
      </g>
     </g>
    </g>
    <g id="xtick_3">
     <g id="line2d_3">
      <g>
       <use style="stroke:#000000;stroke-width:0.8;" x="155.404221" xlink:href="#m4740957611" y="307.584"/>
      </g>
     </g>
     <g id="text_3">
      <!-- 50 -->
      <g transform="translate(149.041721 322.182437)scale(0.1 -0.1)">
       <use xlink:href="#DejaVuSans-53"/>
       <use x="63.623047" xlink:href="#DejaVuSans-48"/>
      </g>
     </g>
    </g>
    <g id="xtick_4">
     <g id="line2d_4">
      <g>
       <use style="stroke:#000000;stroke-width:0.8;" x="196.189968" xlink:href="#m4740957611" y="307.584"/>
      </g>
     </g>
     <g id="text_4">
      <!-- 75 -->
      <g transform="translate(189.827468 322.182437)scale(0.1 -0.1)">
       <defs>
        <path d="M 8.203125 72.90625 
L 55.078125 72.90625 
L 55.078125 68.703125 
L 28.609375 0 
L 18.3125 0 
L 43.21875 64.59375 
L 8.203125 64.59375 
z
" id="DejaVuSans-55"/>
       </defs>
       <use xlink:href="#DejaVuSans-55"/>
       <use x="63.623047" xlink:href="#DejaVuSans-53"/>
      </g>
     </g>
    </g>
    <g id="xtick_5">
     <g id="line2d_5">
      <g>
       <use style="stroke:#000000;stroke-width:0.8;" x="236.975715" xlink:href="#m4740957611" y="307.584"/>
      </g>
     </g>
     <g id="text_5">
      <!-- 100 -->
      <g transform="translate(227.431965 322.182437)scale(0.1 -0.1)">
       <defs>
        <path d="M 12.40625 8.296875 
L 28.515625 8.296875 
L 28.515625 63.921875 
L 10.984375 60.40625 
L 10.984375 69.390625 
L 28.421875 72.90625 
L 38.28125 72.90625 
L 38.28125 8.296875 
L 54.390625 8.296875 
L 54.390625 0 
L 12.40625 0 
z
" id="DejaVuSans-49"/>
       </defs>
       <use xlink:href="#DejaVuSans-49"/>
       <use x="63.623047" xlink:href="#DejaVuSans-48"/>
       <use x="127.246094" xlink:href="#DejaVuSans-48"/>
      </g>
     </g>
    </g>
    <g id="xtick_6">
     <g id="line2d_6">
      <g>
       <use style="stroke:#000000;stroke-width:0.8;" x="277.761462" xlink:href="#m4740957611" y="307.584"/>
      </g>
     </g>
     <g id="text_6">
      <!-- 125 -->
      <g transform="translate(268.217712 322.182437)scale(0.1 -0.1)">
       <use xlink:href="#DejaVuSans-49"/>
       <use x="63.623047" xlink:href="#DejaVuSans-50"/>
       <use x="127.246094" xlink:href="#DejaVuSans-53"/>
      </g>
     </g>
    </g>
    <g id="xtick_7">
     <g id="line2d_7">
      <g>
       <use style="stroke:#000000;stroke-width:0.8;" x="318.547209" xlink:href="#m4740957611" y="307.584"/>
      </g>
     </g>
     <g id="text_7">
      <!-- 150 -->
      <g transform="translate(309.003459 322.182437)scale(0.1 -0.1)">
       <use xlink:href="#DejaVuSans-49"/>
       <use x="63.623047" xlink:href="#DejaVuSans-53"/>
       <use x="127.246094" xlink:href="#DejaVuSans-48"/>
      </g>
     </g>
    </g>
    <g id="xtick_8">
     <g id="line2d_8">
      <g>
       <use style="stroke:#000000;stroke-width:0.8;" x="359.332956" xlink:href="#m4740957611" y="307.584"/>
      </g>
     </g>
     <g id="text_8">
      <!-- 175 -->
      <g transform="translate(349.789206 322.182437)scale(0.1 -0.1)">
       <use xlink:href="#DejaVuSans-49"/>
       <use x="63.623047" xlink:href="#DejaVuSans-55"/>
       <use x="127.246094" xlink:href="#DejaVuSans-53"/>
      </g>
     </g>
    </g>
    <g id="xtick_9">
     <g id="line2d_9">
      <g>
       <use style="stroke:#000000;stroke-width:0.8;" x="400.118703" xlink:href="#m4740957611" y="307.584"/>
      </g>
     </g>
     <g id="text_9">
      <!-- 200 -->
      <g transform="translate(390.574953 322.182437)scale(0.1 -0.1)">
       <use xlink:href="#DejaVuSans-50"/>
       <use x="63.623047" xlink:href="#DejaVuSans-48"/>
       <use x="127.246094" xlink:href="#DejaVuSans-48"/>
      </g>
     </g>
    </g>
    <g id="text_10">
     <!-- row -->
     <g transform="translate(227.068594 335.860562)scale(0.1 -0.1)">
      <defs>
       <path d="M 41.109375 46.296875 
Q 39.59375 47.171875 37.8125 47.578125 
Q 36.03125 48 33.890625 48 
Q 26.265625 48 22.1875 43.046875 
Q 18.109375 38.09375 18.109375 28.8125 
L 18.109375 0 
L 9.078125 0 
L 9.078125 54.6875 
L 18.109375 54.6875 
L 18.109375 46.1875 
Q 20.953125 51.171875 25.484375 53.578125 
Q 30.03125 56 36.53125 56 
Q 37.453125 56 38.578125 55.875 
Q 39.703125 55.765625 41.0625 55.515625 
z
" id="DejaVuSans-114"/>
       <path d="M 30.609375 48.390625 
Q 23.390625 48.390625 19.1875 42.75 
Q 14.984375 37.109375 14.984375 27.296875 
Q 14.984375 17.484375 19.15625 11.84375 
Q 23.34375 6.203125 30.609375 6.203125 
Q 37.796875 6.203125 41.984375 11.859375 
Q 46.1875 17.53125 46.1875 27.296875 
Q 46.1875 37.015625 41.984375 42.703125 
Q 37.796875 48.390625 30.609375 48.390625 
z
M 30.609375 56 
Q 42.328125 56 49.015625 48.375 
Q 55.71875 40.765625 55.71875 27.296875 
Q 55.71875 13.875 49.015625 6.21875 
Q 42.328125 -1.421875 30.609375 -1.421875 
Q 18.84375 -1.421875 12.171875 6.21875 
Q 5.515625 13.875 5.515625 27.296875 
Q 5.515625 40.765625 12.171875 48.375 
Q 18.84375 56 30.609375 56 
z
" id="DejaVuSans-111"/>
       <path d="M 4.203125 54.6875 
L 13.1875 54.6875 
L 24.421875 12.015625 
L 35.59375 54.6875 
L 46.1875 54.6875 
L 57.421875 12.015625 
L 68.609375 54.6875 
L 77.59375 54.6875 
L 63.28125 0 
L 52.6875 0 
L 40.921875 44.828125 
L 29.109375 0 
L 18.5 0 
z
" id="DejaVuSans-119"/>
      </defs>
      <use xlink:href="#DejaVuSans-114"/>
      <use x="38.863281" xlink:href="#DejaVuSans-111"/>
      <use x="100.044922" xlink:href="#DejaVuSans-119"/>
     </g>
    </g>
   </g>
   <g id="matplotlib.axis_2">
    <g id="ytick_1">
     <g id="line2d_10">
      <defs>
       <path d="M 0 0 
L -3.5 0 
" id="m8d0f88040b" style="stroke:#000000;stroke-width:0.8;"/>
      </defs>
      <g>
       <use style="stroke:#000000;stroke-width:0.8;" x="57.6" xlink:href="#m8d0f88040b" y="266.283403"/>
      </g>
     </g>
     <g id="text_11">
      <!-- 5000 -->
      <g transform="translate(25.15 270.082621)scale(0.1 -0.1)">
       <use xlink:href="#DejaVuSans-53"/>
       <use x="63.623047" xlink:href="#DejaVuSans-48"/>
       <use x="127.246094" xlink:href="#DejaVuSans-48"/>
       <use x="190.869141" xlink:href="#DejaVuSans-48"/>
      </g>
     </g>
    </g>
    <g id="ytick_2">
     <g id="line2d_11">
      <g>
       <use style="stroke:#000000;stroke-width:0.8;" x="57.6" xlink:href="#m8d0f88040b" y="210.976628"/>
      </g>
     </g>
     <g id="text_12">
      <!-- 5500 -->
      <g transform="translate(25.15 214.775847)scale(0.1 -0.1)">
       <use xlink:href="#DejaVuSans-53"/>
       <use x="63.623047" xlink:href="#DejaVuSans-53"/>
       <use x="127.246094" xlink:href="#DejaVuSans-48"/>
       <use x="190.869141" xlink:href="#DejaVuSans-48"/>
      </g>
     </g>
    </g>
    <g id="ytick_3">
     <g id="line2d_12">
      <g>
       <use style="stroke:#000000;stroke-width:0.8;" x="57.6" xlink:href="#m8d0f88040b" y="155.669854"/>
      </g>
     </g>
     <g id="text_13">
      <!-- 6000 -->
      <g transform="translate(25.15 159.469073)scale(0.1 -0.1)">
       <defs>
        <path d="M 33.015625 40.375 
Q 26.375 40.375 22.484375 35.828125 
Q 18.609375 31.296875 18.609375 23.390625 
Q 18.609375 15.53125 22.484375 10.953125 
Q 26.375 6.390625 33.015625 6.390625 
Q 39.65625 6.390625 43.53125 10.953125 
Q 47.40625 15.53125 47.40625 23.390625 
Q 47.40625 31.296875 43.53125 35.828125 
Q 39.65625 40.375 33.015625 40.375 
z
M 52.59375 71.296875 
L 52.59375 62.3125 
Q 48.875 64.0625 45.09375 64.984375 
Q 41.3125 65.921875 37.59375 65.921875 
Q 27.828125 65.921875 22.671875 59.328125 
Q 17.53125 52.734375 16.796875 39.40625 
Q 19.671875 43.65625 24.015625 45.921875 
Q 28.375 48.1875 33.59375 48.1875 
Q 44.578125 48.1875 50.953125 41.515625 
Q 57.328125 34.859375 57.328125 23.390625 
Q 57.328125 12.15625 50.6875 5.359375 
Q 44.046875 -1.421875 33.015625 -1.421875 
Q 20.359375 -1.421875 13.671875 8.265625 
Q 6.984375 17.96875 6.984375 36.375 
Q 6.984375 53.65625 15.1875 63.9375 
Q 23.390625 74.21875 37.203125 74.21875 
Q 40.921875 74.21875 44.703125 73.484375 
Q 48.484375 72.75 52.59375 71.296875 
z
" id="DejaVuSans-54"/>
       </defs>
       <use xlink:href="#DejaVuSans-54"/>
       <use x="63.623047" xlink:href="#DejaVuSans-48"/>
       <use x="127.246094" xlink:href="#DejaVuSans-48"/>
       <use x="190.869141" xlink:href="#DejaVuSans-48"/>
      </g>
     </g>
    </g>
    <g id="ytick_4">
     <g id="line2d_13">
      <g>
       <use style="stroke:#000000;stroke-width:0.8;" x="57.6" xlink:href="#m8d0f88040b" y="100.363079"/>
      </g>
     </g>
     <g id="text_14">
      <!-- 6500 -->
      <g transform="translate(25.15 104.162298)scale(0.1 -0.1)">
       <use xlink:href="#DejaVuSans-54"/>
       <use x="63.623047" xlink:href="#DejaVuSans-53"/>
       <use x="127.246094" xlink:href="#DejaVuSans-48"/>
       <use x="190.869141" xlink:href="#DejaVuSans-48"/>
      </g>
     </g>
    </g>
    <g id="ytick_5">
     <g id="line2d_14">
      <g>
       <use style="stroke:#000000;stroke-width:0.8;" x="57.6" xlink:href="#m8d0f88040b" y="45.056305"/>
      </g>
     </g>
     <g id="text_15">
      <!-- 7000 -->
      <g transform="translate(25.15 48.855524)scale(0.1 -0.1)">
       <use xlink:href="#DejaVuSans-55"/>
       <use x="63.623047" xlink:href="#DejaVuSans-48"/>
       <use x="127.246094" xlink:href="#DejaVuSans-48"/>
       <use x="190.869141" xlink:href="#DejaVuSans-48"/>
      </g>
     </g>
    </g>
    <g id="text_16">
     <!-- column -->
     <g transform="translate(19.070312 192.933469)rotate(-90)scale(0.1 -0.1)">
      <defs>
       <path d="M 48.78125 52.59375 
L 48.78125 44.1875 
Q 44.96875 46.296875 41.140625 47.34375 
Q 37.3125 48.390625 33.40625 48.390625 
Q 24.65625 48.390625 19.8125 42.84375 
Q 14.984375 37.3125 14.984375 27.296875 
Q 14.984375 17.28125 19.8125 11.734375 
Q 24.65625 6.203125 33.40625 6.203125 
Q 37.3125 6.203125 41.140625 7.25 
Q 44.96875 8.296875 48.78125 10.40625 
L 48.78125 2.09375 
Q 45.015625 0.34375 40.984375 -0.53125 
Q 36.96875 -1.421875 32.421875 -1.421875 
Q 20.0625 -1.421875 12.78125 6.34375 
Q 5.515625 14.109375 5.515625 27.296875 
Q 5.515625 40.671875 12.859375 48.328125 
Q 20.21875 56 33.015625 56 
Q 37.15625 56 41.109375 55.140625 
Q 45.0625 54.296875 48.78125 52.59375 
z
" id="DejaVuSans-99"/>
       <path d="M 9.421875 75.984375 
L 18.40625 75.984375 
L 18.40625 0 
L 9.421875 0 
z
" id="DejaVuSans-108"/>
       <path d="M 8.5 21.578125 
L 8.5 54.6875 
L 17.484375 54.6875 
L 17.484375 21.921875 
Q 17.484375 14.15625 20.5 10.265625 
Q 23.53125 6.390625 29.59375 6.390625 
Q 36.859375 6.390625 41.078125 11.03125 
Q 45.3125 15.671875 45.3125 23.6875 
L 45.3125 54.6875 
L 54.296875 54.6875 
L 54.296875 0 
L 45.3125 0 
L 45.3125 8.40625 
Q 42.046875 3.421875 37.71875 1 
Q 33.40625 -1.421875 27.6875 -1.421875 
Q 18.265625 -1.421875 13.375 4.4375 
Q 8.5 10.296875 8.5 21.578125 
z
M 31.109375 56 
z
" id="DejaVuSans-117"/>
       <path d="M 52 44.1875 
Q 55.375 50.25 60.0625 53.125 
Q 64.75 56 71.09375 56 
Q 79.640625 56 84.28125 50.015625 
Q 88.921875 44.046875 88.921875 33.015625 
L 88.921875 0 
L 79.890625 0 
L 79.890625 32.71875 
Q 79.890625 40.578125 77.09375 44.375 
Q 74.3125 48.1875 68.609375 48.1875 
Q 61.625 48.1875 57.5625 43.546875 
Q 53.515625 38.921875 53.515625 30.90625 
L 53.515625 0 
L 44.484375 0 
L 44.484375 32.71875 
Q 44.484375 40.625 41.703125 44.40625 
Q 38.921875 48.1875 33.109375 48.1875 
Q 26.21875 48.1875 22.15625 43.53125 
Q 18.109375 38.875 18.109375 30.90625 
L 18.109375 0 
L 9.078125 0 
L 9.078125 54.6875 
L 18.109375 54.6875 
L 18.109375 46.1875 
Q 21.1875 51.21875 25.484375 53.609375 
Q 29.78125 56 35.6875 56 
Q 41.65625 56 45.828125 52.96875 
Q 50 49.953125 52 44.1875 
z
" id="DejaVuSans-109"/>
       <path d="M 54.890625 33.015625 
L 54.890625 0 
L 45.90625 0 
L 45.90625 32.71875 
Q 45.90625 40.484375 42.875 44.328125 
Q 39.84375 48.1875 33.796875 48.1875 
Q 26.515625 48.1875 22.3125 43.546875 
Q 18.109375 38.921875 18.109375 30.90625 
L 18.109375 0 
L 9.078125 0 
L 9.078125 54.6875 
L 18.109375 54.6875 
L 18.109375 46.1875 
Q 21.34375 51.125 25.703125 53.5625 
Q 30.078125 56 35.796875 56 
Q 45.21875 56 50.046875 50.171875 
Q 54.890625 44.34375 54.890625 33.015625 
z
" id="DejaVuSans-110"/>
      </defs>
      <use xlink:href="#DejaVuSans-99"/>
      <use x="54.980469" xlink:href="#DejaVuSans-111"/>
      <use x="116.162109" xlink:href="#DejaVuSans-108"/>
      <use x="143.945312" xlink:href="#DejaVuSans-117"/>
      <use x="207.324219" xlink:href="#DejaVuSans-109"/>
      <use x="304.736328" xlink:href="#DejaVuSans-110"/>
     </g>
    </g>
   </g>
   <g id="line2d_15">
    <path clip-path="url(#p8718f4e1f9)" d="M 73.832727 263.676007 
L 398.487273 263.676007 
L 398.487273 263.676007 
" style="fill:none;stroke:#ff0000;stroke-dasharray:5.55,2.4;stroke-dashoffset:0;stroke-width:1.5;"/>
   </g>
   <g id="line2d_16">
    <path clip-path="url(#p8718f4e1f9)" d="M 73.832727 267.793519 
L 75.464157 274.993092 
L 77.095587 251.323961 
L 78.727017 282.945632 
L 80.358447 267.021763 
L 81.989877 259.93222 
L 83.621307 281.364539 
L 85.252736 269.103239 
L 86.884166 284.814188 
L 88.515596 273.680886 
L 90.147026 256.29393 
L 91.778456 269.059944 
L 93.409886 268.908059 
L 95.041316 282.409941 
L 96.672746 279.741929 
L 98.304175 274.844052 
L 99.935605 275.471492 
L 101.567035 275.47392 
L 103.198465 275.338255 
L 104.829895 263.71534 
L 106.461325 283.300666 
L 108.092755 290.759036 
L 109.724185 277.428517 
L 111.355614 281.683712 
L 112.987044 269.859167 
L 114.618474 265.748836 
L 116.249904 280.443584 
L 117.881334 267.285092 
L 119.512764 277.021735 
L 121.144194 284.956458 
L 122.775624 280.431909 
L 124.407053 274.407094 
L 126.038483 261.437639 
L 127.669913 290.977126 
L 129.301343 270.28063 
L 130.932773 272.64773 
L 132.564203 278.229703 
L 134.195633 283.200077 
L 135.827063 282.359589 
L 137.458492 267.35183 
L 139.089922 283.089572 
L 140.721352 263.802008 
L 142.352782 279.252835 
L 143.984212 258.335625 
L 145.615642 285.083109 
L 147.247072 292.424686 
L 148.878502 260.486819 
L 150.509931 270.996851 
L 152.141361 256.144429 
L 155.404221 264.525304 
L 157.035651 273.302431 
L 158.667081 284.235499 
L 160.298511 265.342589 
L 161.929941 272.75986 
L 163.56137 264.137212 
L 165.1928 278.430655 
L 166.82423 288.581098 
L 168.45566 266.254027 
L 170.08709 258.627812 
L 171.71852 274.129598 
L 173.34995 276.220429 
L 174.98138 273.274853 
L 176.61281 256.062163 
L 178.244239 279.492931 
L 179.875669 283.188858 
L 181.507099 286.091564 
L 183.138529 262.208501 
L 184.769959 275.277544 
L 186.401389 265.61455 
L 188.032819 276.695213 
L 189.664249 277.141664 
L 191.295678 267.967704 
L 192.927108 284.913269 
L 194.558538 279.006171 
L 196.189968 273.611805 
L 197.821398 277.733629 
L 199.452828 263.152796 
L 201.084258 272.068787 
L 202.715688 261.479306 
L 204.347117 257.823344 
L 205.978547 268.758779 
L 207.609977 264.328222 
L 209.241407 275.852975 
L 210.872837 282.496637 
L 212.504267 251.853876 
L 214.135697 269.057381 
L 215.767127 271.291476 
L 217.398556 255.758233 
L 219.029986 262.274467 
L 220.661416 295.488 
L 222.292846 271.793492 
L 223.924276 251.916684 
L 225.555706 259.995738 
L 227.187136 278.012174 
L 228.818566 288.987123 
L 230.449995 283.697402 
L 232.081425 288.102716 
L 233.712855 273.15337 
L 235.344285 267.390323 
L 236.975715 265.132258 
L 238.607145 274.844596 
L 240.238575 282.493122 
L 243.501434 279.228629 
L 245.132864 274.297875 
L 246.764294 272.634646 
L 248.395724 277.681329 
L 250.027154 284.865726 
L 251.658584 248.706188 
L 253.290014 260.61639 
L 254.921444 269.238719 
L 256.552873 290.6948 
L 258.184303 270.259728 
L 259.815733 267.383463 
L 261.447163 266.857615 
L 263.078593 278.316454 
L 264.710023 284.428407 
L 266.341453 250.735495 
L 267.972883 272.897391 
L 269.604312 263.418278 
L 271.235742 286.806946 
L 272.867172 266.345491 
L 274.498602 289.054899 
L 276.130032 273.085163 
L 277.761462 281.908372 
L 279.392892 266.15047 
L 281.024322 275.852415 
L 282.655751 276.825869 
L 284.287181 279.526261 
L 285.918611 273.430892 
L 287.550041 283.892576 
L 290.812901 261.726662 
L 292.444331 263.018842 
L 294.075761 289.325062 
L 295.70719 280.973204 
L 297.33862 284.531733 
L 298.97005 256.984116 
L 300.60148 287.659413 
L 302.23291 256.504076 
L 303.86434 274.746904 
L 305.49577 272.739127 
L 307.1272 274.987365 
L 308.75863 287.913812 
L 310.390059 274.451085 
L 312.021489 277.089393 
L 313.652919 276.780008 
L 315.284349 275.786085 
L 316.915779 254.814055 
L 318.547209 282.505782 
L 320.178639 276.568119 
L 321.810069 265.617487 
L 323.441498 260.462012 
L 325.072928 277.367133 
L 326.704358 263.253298 
L 328.335788 282.571649 
L 329.967218 271.389452 
L 331.598648 269.397022 
L 333.230078 264.61703 
L 334.861508 265.668128 
L 336.492937 275.913441 
L 338.124367 272.092961 
L 339.755797 274.124752 
L 341.387227 269.823587 
L 343.018657 283.311168 
L 344.650087 261.441973 
L 346.281517 260.664419 
L 347.912947 253.609848 
L 349.544376 279.698146 
L 351.175806 275.852415 
L 352.807236 266.99582 
L 354.438666 257.45805 
L 356.070096 254.988438 
L 357.701526 273.966452 
L 359.332956 272.852077 
L 360.964386 266.305593 
L 362.595815 278.948411 
L 364.227245 283.54047 
L 365.858675 257.844302 
L 367.490105 278.144627 
L 369.121535 278.876076 
L 370.752965 258.046832 
L 372.384395 252.506331 
L 374.015825 288.731144 
L 375.647254 278.608188 
L 377.278684 282.025273 
L 378.910114 279.933038 
L 380.541544 281.405968 
L 382.172974 257.951001 
L 383.804404 274.380431 
L 385.435834 265.987551 
L 387.067264 275.848788 
L 388.698693 273.732475 
L 390.330123 276.086333 
L 391.961553 283.113968 
L 393.592983 260.488896 
L 395.224413 274.124752 
L 396.855843 266.454906 
L 398.487273 282.287135 
L 398.487273 282.287135 
" style="fill:none;stroke:#008000;stroke-dasharray:5.55,2.4;stroke-dashoffset:0;stroke-width:1.5;"/>
   </g>
   <g id="line2d_17">
    <path clip-path="url(#p8718f4e1f9)" d="M 73.832727 113.503534 
L 75.464157 158.282277 
L 77.095587 144.733057 
L 78.727017 162.063386 
L 80.358447 107.531006 
L 81.989877 180.648922 
L 83.621307 116.39832 
L 85.252736 122.144284 
L 86.884166 145.426143 
L 88.515596 189.062209 
L 90.147026 117.738705 
L 91.778456 196.959942 
L 93.409886 135.581386 
L 95.041316 163.406732 
L 96.672746 132.95325 
L 98.304175 110.005974 
L 99.935605 162.098118 
L 101.567035 175.927202 
L 103.198465 184.089125 
L 104.829895 194.477402 
L 106.461325 131.503946 
L 108.092755 149.293523 
L 109.724185 113.470782 
L 111.355614 94.781673 
L 112.987044 217.315385 
L 114.618474 160.096909 
L 116.249904 186.548527 
L 117.881334 136.431134 
L 119.512764 140.832265 
L 121.144194 164.880967 
L 122.775624 79.223477 
L 124.407053 162.644986 
L 126.038483 148.159395 
L 127.669913 208.543498 
L 129.301343 159.799534 
L 130.932773 57.315351 
L 132.564203 204.506828 
L 134.195633 115.94575 
L 135.827063 155.908937 
L 137.458492 142.373991 
L 139.089922 142.81478 
L 140.721352 134.83326 
L 142.352782 159.700637 
L 143.984212 159.490294 
L 145.615642 118.777782 
L 147.247072 169.784036 
L 148.878502 139.970169 
L 150.509931 165.227401 
L 152.141361 143.737642 
L 153.772791 195.673715 
L 155.404221 170.151132 
L 157.035651 210.560181 
L 158.667081 112.192658 
L 160.298511 156.074635 
L 161.929941 103.002945 
L 163.56137 144.549199 
L 166.82423 175.515803 
L 168.45566 131.950809 
L 170.08709 208.839089 
L 171.71852 200.231205 
L 173.34995 143.470019 
L 174.98138 180.023898 
L 176.61281 178.489747 
L 178.244239 135.260916 
L 179.875669 190.025415 
L 181.507099 109.543503 
L 183.138529 176.102767 
L 184.769959 138.878424 
L 186.401389 166.036686 
L 188.032819 175.04849 
L 189.664249 177.847601 
L 191.295678 162.906903 
L 192.927108 215.086026 
L 194.558538 104.650104 
L 196.189968 159.117818 
L 197.821398 136.615202 
L 199.452828 170.930944 
L 201.084258 98.846876 
L 202.715688 130.094953 
L 204.347117 165.653899 
L 205.978547 176.070418 
L 207.609977 152.742962 
L 209.241407 94.87327 
L 210.872837 168.419834 
L 212.504267 163.454829 
L 214.135697 161.49791 
L 215.767127 180.38721 
L 217.398556 136.029791 
L 219.029986 156.314028 
L 220.661416 109.543503 
L 222.292846 117.251798 
L 223.924276 147.728232 
L 225.555706 213.511258 
L 227.187136 179.05785 
L 228.818566 206.647069 
L 230.449995 126.148077 
L 232.081425 116.717411 
L 233.712855 171.100966 
L 235.344285 183.406036 
L 236.975715 153.389988 
L 238.607145 223.823015 
L 240.238575 115.662352 
L 241.870005 145.478272 
L 243.501434 209.763908 
L 245.132864 114.83706 
L 246.764294 190.839028 
L 248.395724 120.145671 
L 250.027154 195.956765 
L 251.658584 116.628839 
L 253.290014 121.066892 
L 254.921444 114.784221 
L 256.552873 193.280893 
L 258.184303 139.266805 
L 259.815733 96.872294 
L 261.447163 100.52384 
L 263.078593 147.648645 
L 264.710023 53.568 
L 266.341453 162.378974 
L 269.604312 107.013721 
L 271.235742 160.645426 
L 272.867172 142.373991 
L 274.498602 183.158508 
L 276.130032 187.931881 
L 277.761462 174.088398 
L 279.392892 191.781604 
L 281.024322 127.044434 
L 282.655751 113.528447 
L 284.287181 156.272366 
L 285.918611 131.503946 
L 287.550041 162.373296 
L 289.181471 168.315221 
L 290.812901 175.544415 
L 292.444331 166.036686 
L 294.075761 229.218593 
L 295.70719 151.639271 
L 297.33862 132.940418 
L 298.97005 198.131972 
L 300.60148 211.930903 
L 302.23291 154.060002 
L 303.86434 59.459319 
L 305.49577 113.819333 
L 307.1272 155.723263 
L 308.75863 176.692457 
L 310.390059 152.521949 
L 312.021489 187.009399 
L 313.652919 207.649763 
L 315.284349 180.439163 
L 316.915779 127.620419 
L 318.547209 225.322104 
L 320.178639 96.098713 
L 321.810069 138.748857 
L 323.441498 156.433519 
L 325.072928 169.364474 
L 326.704358 156.406352 
L 328.335788 81.690424 
L 329.967218 99.369082 
L 333.230078 226.404942 
L 334.861508 153.219776 
L 336.492937 116.494421 
L 338.124367 156.30686 
L 339.755797 94.781673 
L 341.387227 180.734465 
L 343.018657 141.792853 
L 344.650087 209.763908 
L 346.281517 173.171852 
L 347.912947 234.960309 
L 349.544376 143.831312 
L 351.175806 123.302552 
L 352.807236 199.81983 
L 354.438666 70.374256 
L 356.070096 73.289864 
L 357.701526 133.194323 
L 359.332956 137.687032 
L 360.964386 175.555923 
L 362.595815 178.991463 
L 364.227245 126.540618 
L 365.858675 130.437013 
L 367.490105 107.607866 
L 369.121535 203.29549 
L 370.752965 189.902742 
L 372.384395 166.120646 
L 374.015825 168.868871 
L 375.647254 176.374454 
L 377.278684 167.652889 
L 378.910114 101.84405 
L 380.541544 198.605348 
L 382.172974 83.781336 
L 383.804404 248.389501 
L 385.435834 155.069861 
L 387.067264 86.531017 
L 388.698693 180.914753 
L 390.330123 160.722565 
L 391.961553 148.357157 
L 393.592983 153.044915 
L 395.224413 184.725325 
L 396.855843 146.63416 
L 398.487273 123.824136 
L 398.487273 123.824136 
" style="fill:none;stroke:#0000ff;stroke-dasharray:5.55,2.4;stroke-dashoffset:0;stroke-width:1.5;"/>
   </g>
   <g id="line2d_18">
    <path clip-path="url(#p8718f4e1f9)" d="M 73.832727 128.439598 
L 75.464157 134.698451 
L 77.095587 176.754402 
L 78.727017 187.434958 
L 80.358447 169.114341 
L 81.989877 158.282659 
L 83.621307 197.571991 
L 85.252736 163.762841 
L 86.884166 155.550153 
L 88.515596 171.017321 
L 90.147026 127.777331 
L 91.778456 180.633297 
L 93.409886 143.794697 
L 95.041316 183.422674 
L 96.672746 112.619599 
L 98.304175 162.143844 
L 99.935605 157.529251 
L 101.567035 145.280748 
L 103.198465 181.721678 
L 104.829895 196.890757 
L 106.461325 202.614303 
L 108.092755 179.872441 
L 109.724185 187.809587 
L 111.355614 170.974585 
L 112.987044 199.84444 
L 114.618474 145.979993 
L 116.249904 196.12268 
L 117.881334 130.865616 
L 119.512764 163.638118 
L 121.144194 177.082535 
L 122.775624 151.220777 
L 124.407053 154.544197 
L 126.038483 169.837858 
L 127.669913 235.844617 
L 129.301343 162.981789 
L 130.932773 121.127131 
L 132.564203 211.605841 
L 134.195633 187.080586 
L 135.827063 193.805504 
L 137.458492 136.715249 
L 139.089922 199.07759 
L 140.721352 147.264023 
L 142.352782 194.838626 
L 143.984212 145.9175 
L 145.615642 141.807087 
L 147.247072 193.711245 
L 148.878502 133.001557 
L 150.509931 214.468944 
L 152.141361 174.976645 
L 153.772791 182.220399 
L 155.404221 166.931818 
L 157.035651 218.003532 
L 158.667081 161.191609 
L 160.298511 120.841178 
L 161.929941 112.967039 
L 165.1928 164.770133 
L 166.82423 201.341149 
L 168.45566 146.965146 
L 170.08709 187.153908 
L 171.71852 190.576703 
L 173.34995 196.944938 
L 174.98138 189.622745 
L 176.61281 155.630415 
L 178.244239 193.125863 
L 179.875669 220.539384 
L 181.507099 186.633141 
L 183.138529 169.976279 
L 184.769959 177.968488 
L 186.401389 155.00962 
L 188.032819 200.034507 
L 189.664249 187.166011 
L 191.295678 218.261072 
L 192.927108 237.203529 
L 194.558538 175.534099 
L 196.189968 173.564489 
L 197.821398 195.120333 
L 199.452828 187.522077 
L 201.084258 116.730911 
L 202.715688 124.834938 
L 204.347117 152.474753 
L 205.978547 192.727436 
L 207.609977 162.437977 
L 209.241407 137.889064 
L 210.872837 191.414682 
L 212.504267 153.60455 
L 214.135697 161.602019 
L 215.767127 190.932008 
L 217.398556 148.682879 
L 219.029986 148.338047 
L 220.661416 205.720876 
L 222.292846 119.043051 
L 223.924276 101.735169 
L 225.555706 199.207454 
L 227.187136 205.020138 
L 228.818566 215.963633 
L 230.449995 199.426482 
L 232.081425 138.386157 
L 233.712855 189.550772 
L 235.344285 181.458046 
L 236.975715 158.130888 
L 238.607145 219.285035 
L 240.238575 157.782744 
L 241.870005 181.222781 
L 243.501434 230.589394 
L 245.132864 119.599085 
L 246.764294 198.252918 
L 248.395724 202.758846 
L 250.027154 224.128672 
L 251.658584 116.511593 
L 253.290014 159.215832 
L 254.921444 180.826084 
L 256.552873 215.496864 
L 258.184303 140.105109 
L 259.815733 112.773511 
L 261.447163 159.074005 
L 263.078593 169.933481 
L 264.710023 126.894129 
L 266.341453 138.601493 
L 267.972883 151.785446 
L 269.604312 150.0219 
L 271.235742 202.404698 
L 272.867172 117.086435 
L 274.498602 194.149601 
L 276.130032 169.13904 
L 277.761462 198.181385 
L 279.392892 185.33536 
L 281.024322 185.564367 
L 282.655751 113.36609 
L 284.287181 164.668844 
L 285.918611 200.32428 
L 287.550041 153.296287 
L 289.181471 173.237425 
L 290.812901 147.03217 
L 292.444331 153.103368 
L 294.075761 251.819823 
L 295.70719 192.103364 
L 297.33862 187.203798 
L 298.97005 165.854912 
L 300.60148 233.496181 
L 302.23291 126.842125 
L 303.86434 121.329434 
L 305.49577 123.433315 
L 307.1272 173.987496 
L 308.75863 187.102591 
L 310.390059 167.626975 
L 312.021489 182.267449 
L 313.652919 217.705939 
L 315.284349 200.005178 
L 316.915779 125.141862 
L 318.547209 252.488057 
L 320.178639 136.035038 
L 321.810069 179.500701 
L 323.441498 154.292835 
L 325.072928 178.367348 
L 326.704358 141.925842 
L 328.335788 137.509247 
L 329.967218 147.711815 
L 331.598648 202.352528 
L 333.230078 220.771524 
L 334.861508 195.263168 
L 336.492937 175.632971 
L 338.124367 158.302321 
L 339.755797 163.415626 
L 341.387227 175.871501 
L 343.018657 170.495981 
L 344.650087 165.70941 
L 346.281517 164.712162 
L 347.912947 187.173095 
L 349.544376 166.101282 
L 351.175806 136.359202 
L 352.807236 212.87937 
L 354.438666 60.798121 
L 356.070096 88.12316 
L 357.701526 196.113636 
L 359.332956 156.375409 
L 360.964386 180.065133 
L 362.595815 181.944574 
L 364.227245 145.82203 
L 365.858675 104.519145 
L 367.490105 110.530192 
L 369.121535 205.30781 
L 370.752965 199.62693 
L 372.384395 159.618443 
L 374.015825 194.522125 
L 375.647254 203.902675 
L 377.278684 191.393271 
L 378.910114 174.812282 
L 380.541544 206.387492 
L 382.172974 139.507335 
L 383.804404 237.409047 
L 385.435834 159.002865 
L 387.067264 138.900395 
L 388.698693 188.107994 
L 390.330123 187.735617 
L 391.961553 173.897065 
L 393.592983 151.893468 
L 395.224413 178.540381 
L 396.855843 165.84144 
L 398.487273 151.33876 
L 398.487273 151.33876 
" style="fill:none;stroke:#bfbf00;stroke-dasharray:5.55,2.4;stroke-dashoffset:0;stroke-width:1.5;"/>
   </g>
   <g id="line2d_19">
    <path clip-path="url(#p8718f4e1f9)" d="M 73.832727 263.676007 
L 398.487273 263.676007 
L 398.487273 263.676007 
" style="fill:none;stroke:#ff0000;stroke-linecap:square;stroke-width:1.5;"/>
   </g>
   <g id="line2d_20">
    <path clip-path="url(#p8718f4e1f9)" d="M 73.832727 267.793519 
L 75.464157 274.993092 
L 77.095587 251.323961 
L 78.727017 282.945632 
L 80.358447 267.021763 
L 81.989877 259.93222 
L 83.621307 281.364539 
L 85.252736 269.103239 
L 86.884166 284.814188 
L 88.515596 273.680886 
L 90.147026 256.29393 
L 91.778456 269.059944 
L 93.409886 268.908059 
L 95.041316 282.409941 
L 96.672746 279.741929 
L 98.304175 274.844052 
L 99.935605 275.471492 
L 101.567035 275.47392 
L 103.198465 275.338255 
L 104.829895 263.71534 
L 106.461325 283.300666 
L 108.092755 290.759036 
L 109.724185 277.428517 
L 111.355614 281.683712 
L 112.987044 269.859167 
L 114.618474 265.748836 
L 116.249904 280.443584 
L 117.881334 267.285092 
L 119.512764 277.021735 
L 121.144194 284.956458 
L 122.775624 280.431909 
L 124.407053 274.407094 
L 126.038483 261.437639 
L 127.669913 290.977126 
L 129.301343 270.28063 
L 130.932773 272.64773 
L 132.564203 278.229703 
L 134.195633 283.200077 
L 135.827063 282.359589 
L 137.458492 267.35183 
L 139.089922 283.089572 
L 140.721352 263.802008 
L 142.352782 279.252835 
L 143.984212 258.335625 
L 145.615642 285.083109 
L 147.247072 292.424686 
L 148.878502 260.486819 
L 150.509931 270.996851 
L 152.141361 256.144429 
L 155.404221 264.525304 
L 157.035651 273.302431 
L 158.667081 284.235499 
L 160.298511 265.342589 
L 161.929941 272.75986 
L 163.56137 264.137212 
L 165.1928 278.430655 
L 166.82423 288.581098 
L 168.45566 266.254027 
L 170.08709 258.627812 
L 171.71852 274.129598 
L 173.34995 276.220429 
L 174.98138 273.274853 
L 176.61281 256.062163 
L 178.244239 279.492931 
L 179.875669 283.188858 
L 181.507099 286.091564 
L 183.138529 262.208501 
L 184.769959 275.277544 
L 186.401389 265.61455 
L 188.032819 276.695213 
L 189.664249 277.141664 
L 191.295678 267.967704 
L 192.927108 284.913269 
L 194.558538 279.006171 
L 196.189968 273.611805 
L 197.821398 277.733629 
L 199.452828 263.152796 
L 201.084258 272.068787 
L 202.715688 261.479306 
L 204.347117 257.823344 
L 205.978547 268.758779 
L 207.609977 264.328222 
L 209.241407 275.852975 
L 210.872837 282.496637 
L 212.504267 251.853876 
L 214.135697 269.057381 
L 215.767127 271.291476 
L 217.398556 255.758233 
L 219.029986 262.274467 
L 220.661416 295.488 
L 222.292846 271.793492 
L 223.924276 251.916684 
L 225.555706 259.995738 
L 227.187136 278.012174 
L 228.818566 288.987123 
L 230.449995 283.697402 
L 232.081425 288.102716 
L 233.712855 273.15337 
L 235.344285 267.390323 
L 236.975715 265.132258 
L 238.607145 274.844596 
L 240.238575 282.493122 
L 243.501434 279.228629 
L 245.132864 274.297875 
L 246.764294 272.634646 
L 248.395724 277.681329 
L 250.027154 284.865726 
L 251.658584 248.706188 
L 253.290014 260.61639 
L 254.921444 269.238719 
L 256.552873 290.6948 
L 258.184303 270.259728 
L 259.815733 267.383463 
L 261.447163 266.857615 
L 263.078593 278.316454 
L 264.710023 284.428407 
L 266.341453 250.735495 
L 267.972883 272.897391 
L 269.604312 263.418278 
L 271.235742 286.806946 
L 272.867172 266.345491 
L 274.498602 289.054899 
L 276.130032 273.085163 
L 277.761462 281.908372 
L 279.392892 266.15047 
L 281.024322 275.852415 
L 282.655751 276.825869 
L 284.287181 279.526261 
L 285.918611 273.430892 
L 287.550041 283.892576 
L 290.812901 261.726662 
L 292.444331 263.018842 
L 294.075761 289.325062 
L 295.70719 280.973204 
L 297.33862 284.531733 
L 298.97005 256.984116 
L 300.60148 287.659413 
L 302.23291 256.504076 
L 303.86434 274.746904 
L 305.49577 272.739127 
L 307.1272 274.987365 
L 308.75863 287.913812 
L 310.390059 274.451085 
L 312.021489 277.089393 
L 313.652919 276.780008 
L 315.284349 275.786085 
L 316.915779 254.814055 
L 318.547209 282.505782 
L 320.178639 276.568119 
L 321.810069 265.617487 
L 323.441498 260.462012 
L 325.072928 277.367133 
L 326.704358 263.253298 
L 328.335788 282.571649 
L 329.967218 271.389452 
L 331.598648 269.397022 
L 333.230078 264.61703 
L 334.861508 265.668128 
L 336.492937 275.913441 
L 338.124367 272.092961 
L 339.755797 274.124752 
L 341.387227 269.823587 
L 343.018657 283.311168 
L 344.650087 261.441973 
L 346.281517 260.664419 
L 347.912947 253.609848 
L 349.544376 279.698146 
L 351.175806 275.852415 
L 352.807236 266.99582 
L 354.438666 257.45805 
L 356.070096 254.988438 
L 357.701526 273.966452 
L 359.332956 272.852077 
L 360.964386 266.305593 
L 362.595815 278.948411 
L 364.227245 283.54047 
L 365.858675 257.844302 
L 367.490105 278.144627 
L 369.121535 278.876076 
L 370.752965 258.046832 
L 372.384395 252.506331 
L 374.015825 288.731144 
L 375.647254 278.608188 
L 377.278684 282.025273 
L 378.910114 279.933038 
L 380.541544 281.405968 
L 382.172974 257.951001 
L 383.804404 274.380431 
L 385.435834 265.987551 
L 387.067264 275.848788 
L 388.698693 273.732475 
L 390.330123 276.086333 
L 391.961553 283.113968 
L 393.592983 260.488896 
L 395.224413 274.124752 
L 396.855843 266.454906 
L 398.487273 282.287135 
L 398.487273 282.287135 
" style="fill:none;stroke:#008000;stroke-linecap:square;stroke-width:1.5;"/>
   </g>
   <g id="line2d_21">
    <path clip-path="url(#p8718f4e1f9)" d="M 73.832727 113.503534 
L 75.464157 158.282277 
L 77.095587 144.733057 
L 78.727017 162.063386 
L 80.358447 107.531006 
L 81.989877 180.648922 
L 83.621307 116.39832 
L 85.252736 122.144284 
L 86.884166 145.426143 
L 88.515596 189.062209 
L 90.147026 117.738705 
L 91.778456 196.959942 
L 93.409886 135.581386 
L 95.041316 163.406732 
L 96.672746 132.95325 
L 98.304175 110.005974 
L 99.935605 162.098118 
L 101.567035 175.927202 
L 103.198465 184.089125 
L 104.829895 194.477402 
L 106.461325 131.503946 
L 108.092755 149.293523 
L 109.724185 113.470782 
L 111.355614 94.781673 
L 112.987044 217.315385 
L 114.618474 160.096909 
L 116.249904 186.548527 
L 117.881334 136.431134 
L 119.512764 140.832265 
L 121.144194 164.880967 
L 122.775624 79.223477 
L 124.407053 162.644986 
L 126.038483 148.159395 
L 127.669913 208.543498 
L 129.301343 159.799534 
L 130.932773 57.315351 
L 132.564203 204.506828 
L 134.195633 115.94575 
L 135.827063 155.908937 
L 137.458492 142.373991 
L 139.089922 142.81478 
L 140.721352 134.83326 
L 142.352782 159.700637 
L 143.984212 159.490294 
L 145.615642 118.777782 
L 147.247072 169.784036 
L 148.878502 139.970169 
L 150.509931 165.227401 
L 152.141361 143.737642 
L 153.772791 195.673715 
L 155.404221 170.151132 
L 157.035651 210.560181 
L 158.667081 112.192658 
L 160.298511 156.074635 
L 161.929941 103.002945 
L 163.56137 144.549199 
L 166.82423 175.515803 
L 168.45566 131.950809 
L 170.08709 208.839089 
L 171.71852 200.231205 
L 173.34995 143.470019 
L 174.98138 180.023898 
L 176.61281 178.489747 
L 178.244239 135.260916 
L 179.875669 190.025415 
L 181.507099 109.543503 
L 183.138529 176.102767 
L 184.769959 138.878424 
L 186.401389 166.036686 
L 188.032819 175.04849 
L 189.664249 177.847601 
L 191.295678 162.906903 
L 192.927108 215.086026 
L 194.558538 104.650104 
L 196.189968 159.117818 
L 197.821398 136.615202 
L 199.452828 170.930944 
L 201.084258 98.846876 
L 202.715688 130.094953 
L 204.347117 165.653899 
L 205.978547 176.070418 
L 207.609977 152.742962 
L 209.241407 94.87327 
L 210.872837 168.419834 
L 212.504267 163.454829 
L 214.135697 161.49791 
L 215.767127 180.38721 
L 217.398556 136.029791 
L 219.029986 156.314028 
L 220.661416 109.543503 
L 222.292846 117.251798 
L 223.924276 147.728232 
L 225.555706 213.511258 
L 227.187136 179.05785 
L 228.818566 206.647069 
L 230.449995 126.148077 
L 232.081425 116.717411 
L 233.712855 171.100966 
L 235.344285 183.406036 
L 236.975715 153.389988 
L 238.607145 223.823015 
L 240.238575 115.662352 
L 241.870005 145.478272 
L 243.501434 209.763908 
L 245.132864 114.83706 
L 246.764294 190.839028 
L 248.395724 120.145671 
L 250.027154 195.956765 
L 251.658584 116.628839 
L 253.290014 121.066892 
L 254.921444 114.784221 
L 256.552873 193.280893 
L 258.184303 139.266805 
L 259.815733 96.872294 
L 261.447163 100.52384 
L 263.078593 147.648645 
L 264.710023 53.568 
L 266.341453 162.378974 
L 269.604312 107.013721 
L 271.235742 160.645426 
L 272.867172 142.373991 
L 274.498602 183.158508 
L 276.130032 187.931881 
L 277.761462 174.088398 
L 279.392892 191.781604 
L 281.024322 127.044434 
L 282.655751 113.528447 
L 284.287181 156.272366 
L 285.918611 131.503946 
L 287.550041 162.373296 
L 289.181471 168.315221 
L 290.812901 175.544415 
L 292.444331 166.036686 
L 294.075761 229.218593 
L 295.70719 151.639271 
L 297.33862 132.940418 
L 298.97005 198.131972 
L 300.60148 211.930903 
L 302.23291 154.060002 
L 303.86434 59.459319 
L 305.49577 113.819333 
L 307.1272 155.723263 
L 308.75863 176.692457 
L 310.390059 152.521949 
L 312.021489 187.009399 
L 313.652919 207.649763 
L 315.284349 180.439163 
L 316.915779 127.620419 
L 318.547209 225.322104 
L 320.178639 96.098713 
L 321.810069 138.748857 
L 323.441498 156.433519 
L 325.072928 169.364474 
L 326.704358 156.406352 
L 328.335788 81.690424 
L 329.967218 99.369082 
L 333.230078 226.404942 
L 334.861508 153.219776 
L 336.492937 116.494421 
L 338.124367 156.30686 
L 339.755797 94.781673 
L 341.387227 180.734465 
L 343.018657 141.792853 
L 344.650087 209.763908 
L 346.281517 173.171852 
L 347.912947 234.960309 
L 349.544376 143.831312 
L 351.175806 123.302552 
L 352.807236 199.81983 
L 354.438666 70.374256 
L 356.070096 73.289864 
L 357.701526 133.194323 
L 359.332956 137.687032 
L 360.964386 175.555923 
L 362.595815 178.991463 
L 364.227245 126.540618 
L 365.858675 130.437013 
L 367.490105 107.607866 
L 369.121535 203.29549 
L 370.752965 189.902742 
L 372.384395 166.120646 
L 374.015825 168.868871 
L 375.647254 176.374454 
L 377.278684 167.652889 
L 378.910114 101.84405 
L 380.541544 198.605348 
L 382.172974 83.781336 
L 383.804404 248.389501 
L 385.435834 155.069861 
L 387.067264 86.531017 
L 388.698693 180.914753 
L 390.330123 160.722565 
L 391.961553 148.357157 
L 393.592983 153.044915 
L 395.224413 184.725325 
L 396.855843 146.63416 
L 398.487273 123.824136 
L 398.487273 123.824136 
" style="fill:none;stroke:#0000ff;stroke-linecap:square;stroke-width:1.5;"/>
   </g>
   <g id="line2d_22">
    <path clip-path="url(#p8718f4e1f9)" d="M 73.832727 128.439598 
L 75.464157 134.698451 
L 77.095587 176.754402 
L 78.727017 187.434958 
L 80.358447 169.114341 
L 81.989877 158.282659 
L 83.621307 197.571991 
L 85.252736 163.762841 
L 86.884166 155.550153 
L 88.515596 171.017321 
L 90.147026 127.777331 
L 91.778456 180.633297 
L 93.409886 143.794697 
L 95.041316 183.422674 
L 96.672746 112.619599 
L 98.304175 162.143844 
L 99.935605 157.529251 
L 101.567035 145.280748 
L 103.198465 181.721678 
L 104.829895 196.890757 
L 106.461325 202.614303 
L 108.092755 179.872441 
L 109.724185 187.809587 
L 111.355614 170.974585 
L 112.987044 199.84444 
L 114.618474 145.979993 
L 116.249904 196.12268 
L 117.881334 130.865616 
L 119.512764 163.638118 
L 121.144194 177.082535 
L 122.775624 151.220777 
L 124.407053 154.544197 
L 126.038483 169.837858 
L 127.669913 235.844617 
L 129.301343 162.981789 
L 130.932773 121.127131 
L 132.564203 211.605841 
L 134.195633 187.080586 
L 135.827063 193.805504 
L 137.458492 136.715249 
L 139.089922 199.07759 
L 140.721352 147.264023 
L 142.352782 194.838626 
L 143.984212 145.9175 
L 145.615642 141.807087 
L 147.247072 193.711245 
L 148.878502 133.001557 
L 150.509931 214.468944 
L 152.141361 174.976645 
L 153.772791 182.220399 
L 155.404221 166.931818 
L 157.035651 218.003532 
L 158.667081 161.191609 
L 160.298511 120.841178 
L 161.929941 112.967039 
L 165.1928 164.770133 
L 166.82423 201.341149 
L 168.45566 146.965146 
L 170.08709 187.153908 
L 171.71852 190.576703 
L 173.34995 196.944938 
L 174.98138 189.622745 
L 176.61281 155.630415 
L 178.244239 193.125863 
L 179.875669 220.539384 
L 181.507099 186.633141 
L 183.138529 169.976279 
L 184.769959 177.968488 
L 186.401389 155.00962 
L 188.032819 200.034507 
L 189.664249 187.166011 
L 191.295678 218.261072 
L 192.927108 237.203529 
L 194.558538 175.534099 
L 196.189968 173.564489 
L 197.821398 195.120333 
L 199.452828 187.522077 
L 201.084258 116.730911 
L 202.715688 124.834938 
L 204.347117 152.474753 
L 205.978547 192.727436 
L 207.609977 162.437977 
L 209.241407 137.889064 
L 210.872837 191.414682 
L 212.504267 153.60455 
L 214.135697 161.602019 
L 215.767127 190.932008 
L 217.398556 148.682879 
L 219.029986 148.338047 
L 220.661416 205.720876 
L 222.292846 119.043051 
L 223.924276 101.735169 
L 225.555706 199.207454 
L 227.187136 205.020138 
L 228.818566 215.963633 
L 230.449995 199.426482 
L 232.081425 138.386157 
L 233.712855 189.550772 
L 235.344285 181.458046 
L 236.975715 158.130888 
L 238.607145 219.285035 
L 240.238575 157.782744 
L 241.870005 181.222781 
L 243.501434 230.589394 
L 245.132864 119.599085 
L 246.764294 198.252918 
L 248.395724 202.758846 
L 250.027154 224.128672 
L 251.658584 116.511593 
L 253.290014 159.215832 
L 254.921444 180.826084 
L 256.552873 215.496864 
L 258.184303 140.105109 
L 259.815733 112.773511 
L 261.447163 159.074005 
L 263.078593 169.933481 
L 264.710023 126.894129 
L 266.341453 138.601493 
L 267.972883 151.785446 
L 269.604312 150.0219 
L 271.235742 202.404698 
L 272.867172 117.086435 
L 274.498602 194.149601 
L 276.130032 169.13904 
L 277.761462 198.181385 
L 279.392892 185.33536 
L 281.024322 185.564367 
L 282.655751 113.36609 
L 284.287181 164.668844 
L 285.918611 200.32428 
L 287.550041 153.296287 
L 289.181471 173.237425 
L 290.812901 147.03217 
L 292.444331 153.103368 
L 294.075761 251.819823 
L 295.70719 192.103364 
L 297.33862 187.203798 
L 298.97005 165.854912 
L 300.60148 233.496181 
L 302.23291 126.842125 
L 303.86434 121.329434 
L 305.49577 123.433315 
L 307.1272 173.987496 
L 308.75863 187.102591 
L 310.390059 167.626975 
L 312.021489 182.267449 
L 313.652919 217.705939 
L 315.284349 200.005178 
L 316.915779 125.141862 
L 318.547209 252.488057 
L 320.178639 136.035038 
L 321.810069 179.500701 
L 323.441498 154.292835 
L 325.072928 178.367348 
L 326.704358 141.925842 
L 328.335788 137.509247 
L 329.967218 147.711815 
L 331.598648 202.352528 
L 333.230078 220.771524 
L 334.861508 195.263168 
L 336.492937 175.632971 
L 338.124367 158.302321 
L 339.755797 163.415626 
L 341.387227 175.871501 
L 343.018657 170.495981 
L 344.650087 165.70941 
L 346.281517 164.712162 
L 347.912947 187.173095 
L 349.544376 166.101282 
L 351.175806 136.359202 
L 352.807236 212.87937 
L 354.438666 60.798121 
L 356.070096 88.12316 
L 357.701526 196.113636 
L 359.332956 156.375409 
L 360.964386 180.065133 
L 362.595815 181.944574 
L 364.227245 145.82203 
L 365.858675 104.519145 
L 367.490105 110.530192 
L 369.121535 205.30781 
L 370.752965 199.62693 
L 372.384395 159.618443 
L 374.015825 194.522125 
L 375.647254 203.902675 
L 377.278684 191.393271 
L 378.910114 174.812282 
L 380.541544 206.387492 
L 382.172974 139.507335 
L 383.804404 237.409047 
L 385.435834 159.002865 
L 387.067264 138.900395 
L 388.698693 188.107994 
L 390.330123 187.735617 
L 391.961553 173.897065 
L 393.592983 151.893468 
L 395.224413 178.540381 
L 396.855843 165.84144 
L 398.487273 151.33876 
L 398.487273 151.33876 
" style="fill:none;stroke:#bfbf00;stroke-linecap:square;stroke-width:1.5;"/>
   </g>
   <g id="patch_3">
    <path d="M 57.6 307.584 
L 57.6 41.472 
" style="fill:none;stroke:#000000;stroke-linecap:square;stroke-linejoin:miter;stroke-width:0.8;"/>
   </g>
   <g id="patch_4">
    <path d="M 414.72 307.584 
L 414.72 41.472 
" style="fill:none;stroke:#000000;stroke-linecap:square;stroke-linejoin:miter;stroke-width:0.8;"/>
   </g>
   <g id="patch_5">
    <path d="M 57.6 307.584 
L 414.72 307.584 
" style="fill:none;stroke:#000000;stroke-linecap:square;stroke-linejoin:miter;stroke-width:0.8;"/>
   </g>
   <g id="patch_6">
    <path d="M 57.6 41.472 
L 414.72 41.472 
" style="fill:none;stroke:#000000;stroke-linecap:square;stroke-linejoin:miter;stroke-width:0.8;"/>
   </g>
   <g id="text_17">
    <!-- The Lasers in Three Conditions -->
    <g transform="translate(143.534063 35.472)scale(0.12 -0.12)">
     <defs>
      <path d="M -0.296875 72.90625 
L 61.375 72.90625 
L 61.375 64.59375 
L 35.5 64.59375 
L 35.5 0 
L 25.59375 0 
L 25.59375 64.59375 
L -0.296875 64.59375 
z
" id="DejaVuSans-84"/>
      <path d="M 54.890625 33.015625 
L 54.890625 0 
L 45.90625 0 
L 45.90625 32.71875 
Q 45.90625 40.484375 42.875 44.328125 
Q 39.84375 48.1875 33.796875 48.1875 
Q 26.515625 48.1875 22.3125 43.546875 
Q 18.109375 38.921875 18.109375 30.90625 
L 18.109375 0 
L 9.078125 0 
L 9.078125 75.984375 
L 18.109375 75.984375 
L 18.109375 46.1875 
Q 21.34375 51.125 25.703125 53.5625 
Q 30.078125 56 35.796875 56 
Q 45.21875 56 50.046875 50.171875 
Q 54.890625 44.34375 54.890625 33.015625 
z
" id="DejaVuSans-104"/>
      <path d="M 56.203125 29.59375 
L 56.203125 25.203125 
L 14.890625 25.203125 
Q 15.484375 15.921875 20.484375 11.0625 
Q 25.484375 6.203125 34.421875 6.203125 
Q 39.59375 6.203125 44.453125 7.46875 
Q 49.3125 8.734375 54.109375 11.28125 
L 54.109375 2.78125 
Q 49.265625 0.734375 44.1875 -0.34375 
Q 39.109375 -1.421875 33.890625 -1.421875 
Q 20.796875 -1.421875 13.15625 6.1875 
Q 5.515625 13.8125 5.515625 26.8125 
Q 5.515625 40.234375 12.765625 48.109375 
Q 20.015625 56 32.328125 56 
Q 43.359375 56 49.78125 48.890625 
Q 56.203125 41.796875 56.203125 29.59375 
z
M 47.21875 32.234375 
Q 47.125 39.59375 43.09375 43.984375 
Q 39.0625 48.390625 32.421875 48.390625 
Q 24.90625 48.390625 20.390625 44.140625 
Q 15.875 39.890625 15.1875 32.171875 
z
" id="DejaVuSans-101"/>
      <path id="DejaVuSans-32"/>
      <path d="M 9.8125 72.90625 
L 19.671875 72.90625 
L 19.671875 8.296875 
L 55.171875 8.296875 
L 55.171875 0 
L 9.8125 0 
z
" id="DejaVuSans-76"/>
      <path d="M 34.28125 27.484375 
Q 23.390625 27.484375 19.1875 25 
Q 14.984375 22.515625 14.984375 16.5 
Q 14.984375 11.71875 18.140625 8.90625 
Q 21.296875 6.109375 26.703125 6.109375 
Q 34.1875 6.109375 38.703125 11.40625 
Q 43.21875 16.703125 43.21875 25.484375 
L 43.21875 27.484375 
z
M 52.203125 31.203125 
L 52.203125 0 
L 43.21875 0 
L 43.21875 8.296875 
Q 40.140625 3.328125 35.546875 0.953125 
Q 30.953125 -1.421875 24.3125 -1.421875 
Q 15.921875 -1.421875 10.953125 3.296875 
Q 6 8.015625 6 15.921875 
Q 6 25.140625 12.171875 29.828125 
Q 18.359375 34.515625 30.609375 34.515625 
L 43.21875 34.515625 
L 43.21875 35.40625 
Q 43.21875 41.609375 39.140625 45 
Q 35.0625 48.390625 27.6875 48.390625 
Q 23 48.390625 18.546875 47.265625 
Q 14.109375 46.140625 10.015625 43.890625 
L 10.015625 52.203125 
Q 14.9375 54.109375 19.578125 55.046875 
Q 24.21875 56 28.609375 56 
Q 40.484375 56 46.34375 49.84375 
Q 52.203125 43.703125 52.203125 31.203125 
z
" id="DejaVuSans-97"/>
      <path d="M 44.28125 53.078125 
L 44.28125 44.578125 
Q 40.484375 46.53125 36.375 47.5 
Q 32.28125 48.484375 27.875 48.484375 
Q 21.1875 48.484375 17.84375 46.4375 
Q 14.5 44.390625 14.5 40.28125 
Q 14.5 37.15625 16.890625 35.375 
Q 19.28125 33.59375 26.515625 31.984375 
L 29.59375 31.296875 
Q 39.15625 29.25 43.1875 25.515625 
Q 47.21875 21.78125 47.21875 15.09375 
Q 47.21875 7.46875 41.1875 3.015625 
Q 35.15625 -1.421875 24.609375 -1.421875 
Q 20.21875 -1.421875 15.453125 -0.5625 
Q 10.6875 0.296875 5.421875 2 
L 5.421875 11.28125 
Q 10.40625 8.6875 15.234375 7.390625 
Q 20.0625 6.109375 24.8125 6.109375 
Q 31.15625 6.109375 34.5625 8.28125 
Q 37.984375 10.453125 37.984375 14.40625 
Q 37.984375 18.0625 35.515625 20.015625 
Q 33.0625 21.96875 24.703125 23.78125 
L 21.578125 24.515625 
Q 13.234375 26.265625 9.515625 29.90625 
Q 5.8125 33.546875 5.8125 39.890625 
Q 5.8125 47.609375 11.28125 51.796875 
Q 16.75 56 26.8125 56 
Q 31.78125 56 36.171875 55.265625 
Q 40.578125 54.546875 44.28125 53.078125 
z
" id="DejaVuSans-115"/>
      <path d="M 9.421875 54.6875 
L 18.40625 54.6875 
L 18.40625 0 
L 9.421875 0 
z
M 9.421875 75.984375 
L 18.40625 75.984375 
L 18.40625 64.59375 
L 9.421875 64.59375 
z
" id="DejaVuSans-105"/>
      <path d="M 64.40625 67.28125 
L 64.40625 56.890625 
Q 59.421875 61.53125 53.78125 63.8125 
Q 48.140625 66.109375 41.796875 66.109375 
Q 29.296875 66.109375 22.65625 58.46875 
Q 16.015625 50.828125 16.015625 36.375 
Q 16.015625 21.96875 22.65625 14.328125 
Q 29.296875 6.6875 41.796875 6.6875 
Q 48.140625 6.6875 53.78125 8.984375 
Q 59.421875 11.28125 64.40625 15.921875 
L 64.40625 5.609375 
Q 59.234375 2.09375 53.4375 0.328125 
Q 47.65625 -1.421875 41.21875 -1.421875 
Q 24.65625 -1.421875 15.125 8.703125 
Q 5.609375 18.84375 5.609375 36.375 
Q 5.609375 53.953125 15.125 64.078125 
Q 24.65625 74.21875 41.21875 74.21875 
Q 47.75 74.21875 53.53125 72.484375 
Q 59.328125 70.75 64.40625 67.28125 
z
" id="DejaVuSans-67"/>
      <path d="M 45.40625 46.390625 
L 45.40625 75.984375 
L 54.390625 75.984375 
L 54.390625 0 
L 45.40625 0 
L 45.40625 8.203125 
Q 42.578125 3.328125 38.25 0.953125 
Q 33.9375 -1.421875 27.875 -1.421875 
Q 17.96875 -1.421875 11.734375 6.484375 
Q 5.515625 14.40625 5.515625 27.296875 
Q 5.515625 40.1875 11.734375 48.09375 
Q 17.96875 56 27.875 56 
Q 33.9375 56 38.25 53.625 
Q 42.578125 51.265625 45.40625 46.390625 
z
M 14.796875 27.296875 
Q 14.796875 17.390625 18.875 11.75 
Q 22.953125 6.109375 30.078125 6.109375 
Q 37.203125 6.109375 41.296875 11.75 
Q 45.40625 17.390625 45.40625 27.296875 
Q 45.40625 37.203125 41.296875 42.84375 
Q 37.203125 48.484375 30.078125 48.484375 
Q 22.953125 48.484375 18.875 42.84375 
Q 14.796875 37.203125 14.796875 27.296875 
z
" id="DejaVuSans-100"/>
      <path d="M 18.3125 70.21875 
L 18.3125 54.6875 
L 36.8125 54.6875 
L 36.8125 47.703125 
L 18.3125 47.703125 
L 18.3125 18.015625 
Q 18.3125 11.328125 20.140625 9.421875 
Q 21.96875 7.515625 27.59375 7.515625 
L 36.8125 7.515625 
L 36.8125 0 
L 27.59375 0 
Q 17.1875 0 13.234375 3.875 
Q 9.28125 7.765625 9.28125 18.015625 
L 9.28125 47.703125 
L 2.6875 47.703125 
L 2.6875 54.6875 
L 9.28125 54.6875 
L 9.28125 70.21875 
z
" id="DejaVuSans-116"/>
     </defs>
     <use xlink:href="#DejaVuSans-84"/>
     <use x="61.083984" xlink:href="#DejaVuSans-104"/>
     <use x="124.462891" xlink:href="#DejaVuSans-101"/>
     <use x="185.986328" xlink:href="#DejaVuSans-32"/>
     <use x="217.773438" xlink:href="#DejaVuSans-76"/>
     <use x="273.486328" xlink:href="#DejaVuSans-97"/>
     <use x="334.765625" xlink:href="#DejaVuSans-115"/>
     <use x="386.865234" xlink:href="#DejaVuSans-101"/>
     <use x="448.388672" xlink:href="#DejaVuSans-114"/>
     <use x="489.501953" xlink:href="#DejaVuSans-115"/>
     <use x="541.601562" xlink:href="#DejaVuSans-32"/>
     <use x="573.388672" xlink:href="#DejaVuSans-105"/>
     <use x="601.171875" xlink:href="#DejaVuSans-110"/>
     <use x="664.550781" xlink:href="#DejaVuSans-32"/>
     <use x="696.337891" xlink:href="#DejaVuSans-84"/>
     <use x="757.421875" xlink:href="#DejaVuSans-104"/>
     <use x="820.800781" xlink:href="#DejaVuSans-114"/>
     <use x="859.664062" xlink:href="#DejaVuSans-101"/>
     <use x="921.1875" xlink:href="#DejaVuSans-101"/>
     <use x="982.710938" xlink:href="#DejaVuSans-32"/>
     <use x="1014.498047" xlink:href="#DejaVuSans-67"/>
     <use x="1084.322266" xlink:href="#DejaVuSans-111"/>
     <use x="1145.503906" xlink:href="#DejaVuSans-110"/>
     <use x="1208.882812" xlink:href="#DejaVuSans-100"/>
     <use x="1272.359375" xlink:href="#DejaVuSans-105"/>
     <use x="1300.142578" xlink:href="#DejaVuSans-116"/>
     <use x="1339.351562" xlink:href="#DejaVuSans-105"/>
     <use x="1367.134766" xlink:href="#DejaVuSans-111"/>
     <use x="1428.316406" xlink:href="#DejaVuSans-110"/>
     <use x="1491.695312" xlink:href="#DejaVuSans-115"/>
    </g>
   </g>
   <g id="legend_1">
    <g id="patch_7">
     <path d="M 64.6 109.297 
L 228.590625 109.297 
Q 230.590625 109.297 230.590625 107.297 
L 230.590625 48.472 
Q 230.590625 46.472 228.590625 46.472 
L 64.6 46.472 
Q 62.6 46.472 62.6 48.472 
L 62.6 107.297 
Q 62.6 109.297 64.6 109.297 
z
" style="fill:#ffffff;opacity:0.8;stroke:#cccccc;stroke-linejoin:miter;"/>
    </g>
    <g id="line2d_23">
     <path d="M 66.6 54.570437 
L 86.6 54.570437 
" style="fill:none;stroke:#ff0000;stroke-dasharray:5.55,2.4;stroke-dashoffset:0;stroke-width:1.5;"/>
    </g>
    <g id="line2d_24"/>
    <g id="text_18">
     <!-- spt_delays_without_attack -->
     <g transform="translate(94.6 58.070437)scale(0.1 -0.1)">
      <defs>
       <path d="M 18.109375 8.203125 
L 18.109375 -20.796875 
L 9.078125 -20.796875 
L 9.078125 54.6875 
L 18.109375 54.6875 
L 18.109375 46.390625 
Q 20.953125 51.265625 25.265625 53.625 
Q 29.59375 56 35.59375 56 
Q 45.5625 56 51.78125 48.09375 
Q 58.015625 40.1875 58.015625 27.296875 
Q 58.015625 14.40625 51.78125 6.484375 
Q 45.5625 -1.421875 35.59375 -1.421875 
Q 29.59375 -1.421875 25.265625 0.953125 
Q 20.953125 3.328125 18.109375 8.203125 
z
M 48.6875 27.296875 
Q 48.6875 37.203125 44.609375 42.84375 
Q 40.53125 48.484375 33.40625 48.484375 
Q 26.265625 48.484375 22.1875 42.84375 
Q 18.109375 37.203125 18.109375 27.296875 
Q 18.109375 17.390625 22.1875 11.75 
Q 26.265625 6.109375 33.40625 6.109375 
Q 40.53125 6.109375 44.609375 11.75 
Q 48.6875 17.390625 48.6875 27.296875 
z
" id="DejaVuSans-112"/>
       <path d="M 50.984375 -16.609375 
L 50.984375 -23.578125 
L -0.984375 -23.578125 
L -0.984375 -16.609375 
z
" id="DejaVuSans-95"/>
       <path d="M 32.171875 -5.078125 
Q 28.375 -14.84375 24.75 -17.8125 
Q 21.140625 -20.796875 15.09375 -20.796875 
L 7.90625 -20.796875 
L 7.90625 -13.28125 
L 13.1875 -13.28125 
Q 16.890625 -13.28125 18.9375 -11.515625 
Q 21 -9.765625 23.484375 -3.21875 
L 25.09375 0.875 
L 2.984375 54.6875 
L 12.5 54.6875 
L 29.59375 11.921875 
L 46.6875 54.6875 
L 56.203125 54.6875 
z
" id="DejaVuSans-121"/>
       <path d="M 9.078125 75.984375 
L 18.109375 75.984375 
L 18.109375 31.109375 
L 44.921875 54.6875 
L 56.390625 54.6875 
L 27.390625 29.109375 
L 57.625 0 
L 45.90625 0 
L 18.109375 26.703125 
L 18.109375 0 
L 9.078125 0 
z
" id="DejaVuSans-107"/>
      </defs>
      <use xlink:href="#DejaVuSans-115"/>
      <use x="52.099609" xlink:href="#DejaVuSans-112"/>
      <use x="115.576172" xlink:href="#DejaVuSans-116"/>
      <use x="154.785156" xlink:href="#DejaVuSans-95"/>
      <use x="204.785156" xlink:href="#DejaVuSans-100"/>
      <use x="268.261719" xlink:href="#DejaVuSans-101"/>
      <use x="329.785156" xlink:href="#DejaVuSans-108"/>
      <use x="357.568359" xlink:href="#DejaVuSans-97"/>
      <use x="418.847656" xlink:href="#DejaVuSans-121"/>
      <use x="478.027344" xlink:href="#DejaVuSans-115"/>
      <use x="530.126953" xlink:href="#DejaVuSans-95"/>
      <use x="580.126953" xlink:href="#DejaVuSans-119"/>
      <use x="661.914062" xlink:href="#DejaVuSans-105"/>
      <use x="689.697266" xlink:href="#DejaVuSans-116"/>
      <use x="728.90625" xlink:href="#DejaVuSans-104"/>
      <use x="792.285156" xlink:href="#DejaVuSans-111"/>
      <use x="853.466797" xlink:href="#DejaVuSans-117"/>
      <use x="916.845703" xlink:href="#DejaVuSans-116"/>
      <use x="956.054688" xlink:href="#DejaVuSans-95"/>
      <use x="1006.054688" xlink:href="#DejaVuSans-97"/>
      <use x="1067.333984" xlink:href="#DejaVuSans-116"/>
      <use x="1106.542969" xlink:href="#DejaVuSans-116"/>
      <use x="1145.751953" xlink:href="#DejaVuSans-97"/>
      <use x="1207.03125" xlink:href="#DejaVuSans-99"/>
      <use x="1262.011719" xlink:href="#DejaVuSans-107"/>
     </g>
    </g>
    <g id="line2d_25">
     <path d="M 66.6 69.526687 
L 86.6 69.526687 
" style="fill:none;stroke:#008000;stroke-dasharray:5.55,2.4;stroke-dashoffset:0;stroke-width:1.5;"/>
    </g>
    <g id="line2d_26"/>
    <g id="text_19">
     <!-- delay_without_attack -->
     <g transform="translate(94.6 73.026687)scale(0.1 -0.1)">
      <use xlink:href="#DejaVuSans-100"/>
      <use x="63.476562" xlink:href="#DejaVuSans-101"/>
      <use x="125" xlink:href="#DejaVuSans-108"/>
      <use x="152.783203" xlink:href="#DejaVuSans-97"/>
      <use x="214.0625" xlink:href="#DejaVuSans-121"/>
      <use x="273.242188" xlink:href="#DejaVuSans-95"/>
      <use x="323.242188" xlink:href="#DejaVuSans-119"/>
      <use x="405.029297" xlink:href="#DejaVuSans-105"/>
      <use x="432.8125" xlink:href="#DejaVuSans-116"/>
      <use x="472.021484" xlink:href="#DejaVuSans-104"/>
      <use x="535.400391" xlink:href="#DejaVuSans-111"/>
      <use x="596.582031" xlink:href="#DejaVuSans-117"/>
      <use x="659.960938" xlink:href="#DejaVuSans-116"/>
      <use x="699.169922" xlink:href="#DejaVuSans-95"/>
      <use x="749.169922" xlink:href="#DejaVuSans-97"/>
      <use x="810.449219" xlink:href="#DejaVuSans-116"/>
      <use x="849.658203" xlink:href="#DejaVuSans-116"/>
      <use x="888.867188" xlink:href="#DejaVuSans-97"/>
      <use x="950.146484" xlink:href="#DejaVuSans-99"/>
      <use x="1005.126953" xlink:href="#DejaVuSans-107"/>
     </g>
    </g>
    <g id="line2d_27">
     <path d="M 66.6 84.482937 
L 86.6 84.482937 
" style="fill:none;stroke:#0000ff;stroke-dasharray:5.55,2.4;stroke-dashoffset:0;stroke-width:1.5;"/>
    </g>
    <g id="line2d_28"/>
    <g id="text_20">
     <!-- spt_delays_with_attack -->
     <g transform="translate(94.6 87.982937)scale(0.1 -0.1)">
      <use xlink:href="#DejaVuSans-115"/>
      <use x="52.099609" xlink:href="#DejaVuSans-112"/>
      <use x="115.576172" xlink:href="#DejaVuSans-116"/>
      <use x="154.785156" xlink:href="#DejaVuSans-95"/>
      <use x="204.785156" xlink:href="#DejaVuSans-100"/>
      <use x="268.261719" xlink:href="#DejaVuSans-101"/>
      <use x="329.785156" xlink:href="#DejaVuSans-108"/>
      <use x="357.568359" xlink:href="#DejaVuSans-97"/>
      <use x="418.847656" xlink:href="#DejaVuSans-121"/>
      <use x="478.027344" xlink:href="#DejaVuSans-115"/>
      <use x="530.126953" xlink:href="#DejaVuSans-95"/>
      <use x="580.126953" xlink:href="#DejaVuSans-119"/>
      <use x="661.914062" xlink:href="#DejaVuSans-105"/>
      <use x="689.697266" xlink:href="#DejaVuSans-116"/>
      <use x="728.90625" xlink:href="#DejaVuSans-104"/>
      <use x="792.285156" xlink:href="#DejaVuSans-95"/>
      <use x="842.285156" xlink:href="#DejaVuSans-97"/>
      <use x="903.564453" xlink:href="#DejaVuSans-116"/>
      <use x="942.773438" xlink:href="#DejaVuSans-116"/>
      <use x="981.982422" xlink:href="#DejaVuSans-97"/>
      <use x="1043.261719" xlink:href="#DejaVuSans-99"/>
      <use x="1098.242188" xlink:href="#DejaVuSans-107"/>
     </g>
    </g>
    <g id="line2d_29">
     <path d="M 66.6 99.439187 
L 86.6 99.439187 
" style="fill:none;stroke:#bfbf00;stroke-dasharray:5.55,2.4;stroke-dashoffset:0;stroke-width:1.5;"/>
    </g>
    <g id="line2d_30"/>
    <g id="text_21">
     <!-- delay_with_attack -->
     <g transform="translate(94.6 102.939187)scale(0.1 -0.1)">
      <use xlink:href="#DejaVuSans-100"/>
      <use x="63.476562" xlink:href="#DejaVuSans-101"/>
      <use x="125" xlink:href="#DejaVuSans-108"/>
      <use x="152.783203" xlink:href="#DejaVuSans-97"/>
      <use x="214.0625" xlink:href="#DejaVuSans-121"/>
      <use x="273.242188" xlink:href="#DejaVuSans-95"/>
      <use x="323.242188" xlink:href="#DejaVuSans-119"/>
      <use x="405.029297" xlink:href="#DejaVuSans-105"/>
      <use x="432.8125" xlink:href="#DejaVuSans-116"/>
      <use x="472.021484" xlink:href="#DejaVuSans-104"/>
      <use x="535.400391" xlink:href="#DejaVuSans-95"/>
      <use x="585.400391" xlink:href="#DejaVuSans-97"/>
      <use x="646.679688" xlink:href="#DejaVuSans-116"/>
      <use x="685.888672" xlink:href="#DejaVuSans-116"/>
      <use x="725.097656" xlink:href="#DejaVuSans-97"/>
      <use x="786.376953" xlink:href="#DejaVuSans-99"/>
      <use x="841.357422" xlink:href="#DejaVuSans-107"/>
     </g>
    </g>
   </g>
  </g>
 </g>
 <defs>
  <clipPath id="p8718f4e1f9">
   <rect height="266.112" width="357.12" x="57.6" y="41.472"/>
  </clipPath>
 </defs>
</svg>
